<svg xmlns="http://www.w3.org/2000/svg" aria-labelledby="title desc" viewBox="0 0 128 128"><title id="title">补录录标志</title><desc id="desc">由三段时间轴和一个补录片段组成的标志</desc><defs><linearGradient id="background" x1="16" x2="112" y1="12" y2="116" gradientUnits="userSpaceOnUse"><stop stop-color="#7457ff"/><stop offset="1" stop-color="#16c7b7"/></linearGradient><filter id="shadow" width="140%" height="140%" x="-20%" y="-20%"><feDropShadow dx="0" dy="5" flood-color="#10132b" flood-opacity=".25" stdDeviation="6"/></filter></defs><rect width="112" height="112" x="8" y="8" fill="url(#background)" rx="30"/><g filter="url(#shadow)"><path fill="#fff" fill-opacity=".94" d="M31 40h66a9 9 0 0 1 9 9v6a9 9 0 0 1-9 9H31a9 9 0 0 1-9-9v-6a9 9 0 0 1 9-9"/><path fill="#fff" fill-opacity=".74" d="M31 70h27a9 9 0 0 1 9 9v6a9 9 0 0 1-9 9H31a9 9 0 0 1-9-9v-6a9 9 0 0 1 9-9"/><path fill="#fff" fill-opacity=".94" d="M76 70h21a9 9 0 0 1 9 9v6a9 9 0 0 1-9 9H76a9 9 0 0 1-9-9v-6a9 9 0 0 1 9-9"/><path stroke="#ffdd6e" stroke-linecap="round" stroke-width="6" d="M72 34v66"/><circle cx="72" cy="34" r="6" fill="#ffdd6e"/></g></svg>